<?xml version="1.0" encoding="UTF-8"?>
<!DOCTYPE svg PUBLIC "-//W3C//DTD SVG 1.1//EN" "http://www.w3.org/Graphics/SVG/1.1/DTD/svg11.dtd">
<!-- Creator: CorelDRAW Home & Student 2019 -->
<svg xmlns="http://www.w3.org/2000/svg" xml:space="preserve" width="100%" height="100%" version="1.1" style="shape-rendering:geometricPrecision; text-rendering:geometricPrecision; image-rendering:optimizeQuality; fill-rule:evenodd; clip-rule:evenodd"
viewBox="0 0 97.1 100"
 xmlns:xlink="http://www.w3.org/1999/xlink">
 <defs>
  <style type="text/css">
   <![CDATA[
    .fil0 {fill:black}
    .fil1 {fill:black;fill-rule:nonzero}
   ]]>
  </style>
 </defs>
 <g id="Ebene_x0020_1">
  <metadata id="CorelCorpID_0Corel-Layer"/>
  <path class="fil0" d="M71.59 100l-33.68 -0.68c-0.37,-10.14 -17.3,-17.67 -17.14,-33.31 0.07,-6.88 2.33,-9.84 8.09,-12.46l0.11 -43.96c0.01,-4.14 2.32,-9.52 8.4,-9.58 6.08,-0.06 8.93,5.19 8.94,9.35l0.02 20.86c3.73,-2.1 8.9,-1.63 11.48,2.5 5.27,-3.32 12.79,-1.49 13.86,5.92 6.39,-3.36 12.27,0.9 13,6.91 1.45,12.11 0.99,25.31 -1.84,36.61 -1.71,6.85 -7.24,14.81 -11.24,17.84z"/>
  <path class="fil1" d="M53.08 5.48c-0.91,-0.03 -1.76,0.53 -2.07,1.39 -0.5,1.36 0.47,2.82 1.92,2.87 11.7,0.41 23.11,3.14 33.73,8.07l-1.96 4.2 12.4 -1.68 -6.67 -10.58 -1.96 4.2c-11.19,-5.19 -23.07,-8.01 -35.39,-8.47z"/>
  <path class="fil1" d="M-0 22.02l6.3 -10.8 2.11 4.13c4.26,-2.16 8.62,-3.96 13.16,-5.45 0.5,-0.16 1.01,-0.13 1.5,0.07 1.81,0.79 1.68,3.37 -0.18,3.98 -4.32,1.41 -8.49,3.14 -12.55,5.19l2.11 4.13 -12.45 -1.25z"/>
 </g>
</svg>
