<?xml version="1.0" encoding="UTF-8"?>
<!DOCTYPE svg PUBLIC "-//W3C//DTD SVG 1.1//EN" "http://www.w3.org/Graphics/SVG/1.1/DTD/svg11.dtd">
<!-- Creator: CorelDRAW Home & Student 2019 -->
<svg xmlns="http://www.w3.org/2000/svg" xml:space="preserve" width="100%" height="100%" version="1.1" style="shape-rendering:geometricPrecision; text-rendering:geometricPrecision; image-rendering:optimizeQuality; fill-rule:evenodd; clip-rule:evenodd"
viewBox="0 0 100.02 84.23"
 xmlns:xlink="http://www.w3.org/1999/xlink">
 <defs>
  <style type="text/css">
   <![CDATA[
    .fil0 {fill:#FEFEFE}
    .fil1 {fill:#FEFEFE;fill-rule:nonzero}
   ]]>
  </style>
 </defs>
 <g id="Ebene_x0020_1">
  <metadata id="CorelCorpID_0Corel-Layer"/>
  <path class="fil0" d="M31.97 0l37.33 0c4.5,0 8.18,3.68 8.18,8.18l0 67.86c0,4.5 -3.68,8.19 -8.18,8.19l-37.33 0c-4.51,0 -8.19,-3.69 -8.19,-8.19l0 -67.86c0,-4.5 3.68,-8.18 8.19,-8.18zm18.74 68.37c2.7,0 4.89,2.19 4.89,4.89 0,2.71 -2.19,4.9 -4.89,4.9 -2.7,0 -4.89,-2.19 -4.89,-4.9 0,-2.7 2.19,-4.89 4.89,-4.89zm-10.24 -63.91l20.37 0 0 2.02 -20.37 0 0 -2.02zm-10.74 6.17l42.12 0 0 52.01 -42.12 0 0 -52.01z"/>
  <path class="fil1" d="M19.92 18.63c0.69,-0.34 1.14,-1.04 1.14,-1.81 0,-1.48 -1.55,-2.46 -2.88,-1.81 -7.2,3.46 -17.36,11.75 -18.13,20.41 -0.68,8.23 6.78,11.92 13.72,12.94l-0.44 3.12 8.37 -4.04 -6.93 -6.19 -0.44 3.12c-4.67,-0.69 -10.74,-2.81 -10.27,-8.61 0.62,-6.95 9.92,-14.27 15.86,-17.13z"/>
  <path class="fil1" d="M80.1 49.54c-0.69,0.34 -1.14,1.04 -1.14,1.81 0,1.48 1.55,2.46 2.88,1.82 7.2,-3.47 17.36,-11.75 18.13,-20.41 0.68,-8.24 -6.78,-11.93 -13.72,-12.94l0.44 -3.12 -8.37 4.03 6.93 6.19 0.44 -3.12c4.67,0.69 10.74,2.81 10.27,8.61 -0.62,6.95 -9.92,14.28 -15.86,17.13z"/>
 </g>
</svg>
