<?xml version="1.0" encoding="UTF-8"?>
<!DOCTYPE svg PUBLIC "-//W3C//DTD SVG 1.1//EN" "http://www.w3.org/Graphics/SVG/1.1/DTD/svg11.dtd">
<!-- Creator: CorelDRAW Home & Student 2019 -->
<svg xmlns="http://www.w3.org/2000/svg" xml:space="preserve" width="100%" height="100%" version="1.1" style="shape-rendering:geometricPrecision; text-rendering:geometricPrecision; image-rendering:optimizeQuality; fill-rule:evenodd; clip-rule:evenodd"
viewBox="0 0 125 100"
 xmlns:xlink="http://www.w3.org/1999/xlink">
 <defs>
  <style type="text/css">
   <![CDATA[
    .fil1 {fill:none}
    .fil0 {fill:black}
   ]]>
  </style>
 </defs>
 <g id="Ebene_x0020_1">
  <metadata id="CorelCorpID_0Corel-Layer"/>
  <path class="fil0" d="M62.5 18.75c-10.34,0 -18.75,8.41 -18.75,18.75 0,10.34 8.41,18.75 18.75,18.75 10.34,0 18.75,-8.41 18.75,-18.75 0,-10.34 -8.41,-18.75 -18.75,-18.75zm0 31.25c-6.89,0 -12.5,-5.61 -12.5,-12.5 0,-6.89 5.61,-12.5 12.5,-12.5 6.89,0 12.5,5.61 12.5,12.5 0,6.89 -5.61,12.5 -12.5,12.5zm0 -50c-20.71,0 -37.5,16.79 -37.5,37.5 0,15.12 5.27,19.34 33.65,60.48 1.86,2.69 5.84,2.69 7.7,0 28.38,-41.14 33.65,-45.36 33.65,-60.48 0,-20.71 -16.79,-37.5 -37.5,-37.5zm0 92.56c-27.21,-39.34 -31.25,-42.46 -31.25,-55.06 0,-8.35 3.25,-16.19 9.15,-22.1 5.91,-5.9 13.75,-9.15 22.1,-9.15 8.35,0 16.19,3.25 22.1,9.15 5.9,5.91 9.15,13.75 9.15,22.1 0,12.6 -4.04,15.72 -31.25,55.06z" _ngcontent-vbd-c20=""/>
  <rect class="fil1" width="125" height="100"/>
 </g>
</svg>
