<?xml version="1.0" encoding="UTF-8"?>
<!DOCTYPE svg PUBLIC "-//W3C//DTD SVG 1.1//EN" "http://www.w3.org/Graphics/SVG/1.1/DTD/svg11.dtd">
<!-- Creator: CorelDRAW Home & Student 2019 -->
<svg xmlns="http://www.w3.org/2000/svg" xml:space="preserve" width="100%" height="100%" version="1.1" style="shape-rendering:geometricPrecision; text-rendering:geometricPrecision; image-rendering:optimizeQuality; fill-rule:evenodd; clip-rule:evenodd"
viewBox="0 0 125.02 100"
 xmlns:xlink="http://www.w3.org/1999/xlink">
 <defs>
  <style type="text/css">
   <![CDATA[
    .fil0 {fill:black}
   ]]>
  </style>
 </defs>
 <g id="Ebene_x0020_1">
  <metadata id="CorelCorpID_0Corel-Layer"/>
  <path class="fil0" d="M58.76 98.12c1.87,2.5 5.63,2.5 7.5,0 3.63,-5.21 6.88,-9.82 9.79,-13.95l-50.36 -38.93c2.09,10.26 9.79,19.49 33.07,52.88zm65.05 -8.65l-33.48 -25.87c7.75,-11.74 9.68,-17.06 9.68,-26.1 0,-20.63 -16.87,-37.5 -37.5,-37.5 -13.32,0 -25.05,7.06 -31.7,17.6l-21.92 -16.94c-1.36,-1.06 -3.33,-0.82 -4.39,0.55l-3.83 4.93c-1.06,1.36 -0.82,3.33 0.54,4.39l114.92 88.81c1.36,1.06 3.33,0.82 4.39,-0.55l3.83 -4.93c1.06,-1.36 0.82,-3.33 -0.54,-4.39zm-51.51 -39.8l-24.05 -18.59c2.41,-5.46 7.82,-9.21 14.26,-9.21 8.75,0 15.63,6.88 15.63,15.63 0,4.99 -2.29,9.32 -5.84,12.17z" _ngcontent-vbd-c20=""/>
 </g>
</svg>
