<?xml version="1.0" encoding="UTF-8"?>
<!DOCTYPE svg PUBLIC "-//W3C//DTD SVG 1.1//EN" "http://www.w3.org/Graphics/SVG/1.1/DTD/svg11.dtd">
<!-- Creator: CorelDRAW Home & Student 2019 -->
<svg xmlns="http://www.w3.org/2000/svg" xml:space="preserve" width="100%" height="100%" version="1.1" style="shape-rendering:geometricPrecision; text-rendering:geometricPrecision; image-rendering:optimizeQuality; fill-rule:evenodd; clip-rule:evenodd"
viewBox="0 0 100 100"
 xmlns:xlink="http://www.w3.org/1999/xlink">
 <defs>
  <style type="text/css">
   <![CDATA[
    .fil0 {fill:none}
    .fil1 {fill:red;fill-rule:nonzero}
   ]]>
  </style>
 </defs>
 <g id="Ebene_x0020_1">
  <metadata id="CorelCorpID_0Corel-Layer"/>
  <rect class="fil0" width="100" height="100"/>
  <path class="fil1" d="M8.83 57.12l-8.3 -19.52 7.05 0.86c5.19,-19.12 22.51,-32.37 42.42,-32.42 18.88,0.05 35.39,11.88 41.57,29.65 0.67,1.97 -0.48,4.09 -2.5,4.59 -1.79,0.44 -3.6,-0.55 -4.2,-2.29 -5.18,-14.92 -19.09,-24.83 -34.87,-24.87 -16.33,0.04 -30.59,10.66 -35.3,26.22l7.05 0.86 -12.92 16.92z"/>
  <path class="fil1" d="M41.73 66.93l0 -39.11 25.99 19.56 -25.99 19.55zm0 -19.55m12.99 -9.78m0 19.55"/>
  <path class="fil1" d="M91.17 42.88l8.3 19.52 -7.05 -0.86c-5.19,19.12 -22.51,32.37 -42.42,32.42 -18.88,-0.05 -35.39,-11.88 -41.57,-29.65 -0.67,-1.97 0.48,-4.09 2.5,-4.59 1.79,-0.44 3.6,0.55 4.2,2.29 5.18,14.92 19.09,24.83 34.87,24.87 16.33,-0.04 30.59,-10.66 35.3,-26.22l-7.05 -0.86 12.92 -16.92z"/>
 </g>
</svg>
