<?xml version="1.0" encoding="UTF-8"?>
<!DOCTYPE svg PUBLIC "-//W3C//DTD SVG 1.1//EN" "http://www.w3.org/Graphics/SVG/1.1/DTD/svg11.dtd">
<!-- Creator: CorelDRAW Home & Student 2019 -->
<svg xmlns="http://www.w3.org/2000/svg" xml:space="preserve" width="100%" height="100%" version="1.1" style="shape-rendering:geometricPrecision; text-rendering:geometricPrecision; image-rendering:optimizeQuality; fill-rule:evenodd; clip-rule:evenodd"
viewBox="0 0 100 100"
 xmlns:xlink="http://www.w3.org/1999/xlink">
 <defs>
  <style type="text/css">
   <![CDATA[
    .fil1 {fill:none}
    .fil0 {fill:white}
   ]]>
  </style>
 </defs>
 <g id="Ebene_x0020_1">
  <metadata id="CorelCorpID_0Corel-Layer"/>
  <path id="path1883" class="fil0" d="M49.59 12.12l0 57.52c-1.54,-1.9 -4.11,-2.95 -7.45,-2.95 -7.67,0 -14.37,6.31 -14.37,13.24 0,5.3 3.57,7.95 9.06,7.95 8.3,0 14.34,-6.51 14.38,-13.2 0,-0.02 0,-0.04 0,-0.06l0 -46.54c8.17,4.28 14.05,8.55 17.22,14.75 3.21,6.28 1.18,14.97 -7.55,22.91 -0.22,0.82 0.14,1.25 0.77,1.22 15.5,-13.31 12.99,-30 -1.1,-41.48 -4.59,-3.74 -7.93,-8.74 -9.34,-13.36l-1.62 0z"/>
 </g>
</svg>
