<?xml version="1.0" encoding="utf-8"?>
<!-- Generator: Adobe Illustrator 19.1.0, SVG Export Plug-In . SVG Version: 6.00 Build 0)  -->
<svg version="1.1" id="Ebene_1" xmlns="http://www.w3.org/2000/svg" xmlns:xlink="http://www.w3.org/1999/xlink" x="0px" y="0px"
	 viewBox="0 0 310.9 56.2" style="enable-background:new 0 0 310.9 56.2;" xml:space="preserve">
<style type="text/css">
	.st0{fill:#1D1D1B;}
	.st1{fill:#804996;}
</style>
<path class="st0" d="M55.7,30.7c-2.2,0-4-0.8-5.6-2.3c-1.5-1.5-2.3-3.4-2.3-5.6s0.8-4.1,2.3-5.6c1.5-1.5,3.4-2.3,5.6-2.3
	c2.2,0,4.1,0.8,5.6,2.3c0.3,0.3,0.8,0.9,1.5,1.8l0.4,0.5l-3.7,1.3l-0.2-0.3c-0.3-0.4-0.6-0.7-0.7-0.8c-0.8-0.8-1.8-1.2-2.9-1.2
	c-1.1,0-2.1,0.4-2.9,1.2s-1.2,1.8-1.2,2.9c0,1.1,0.4,2.1,1.2,2.9s1.8,1.2,2.9,1.2c1.2,0,2.1-0.4,2.9-1.2c0.1-0.1,0.3-0.4,0.7-0.8
	l0.2-0.3l3.7,1.3l-0.4,0.5c-0.7,0.9-1.2,1.6-1.5,1.9C59.7,29.9,57.8,30.7,55.7,30.7z"/>
<path class="st0" d="M73.2,30.7c-2.2,0-4.1-0.8-5.6-2.3c-1.5-1.5-2.3-3.4-2.3-5.6s0.8-4.1,2.3-5.6c1.5-1.5,3.4-2.3,5.6-2.3
	c1.5,0,2.8,0.5,4,1.4v-0.3h3.7v14.4h-3.7v-1.1C76,30.2,74.7,30.7,73.2,30.7z M73.2,18.6c-1.2,0-2.1,0.4-2.9,1.2
	c-0.8,0.8-1.2,1.8-1.2,2.9c0,1.1,0.4,2.1,1.2,2.9c0.8,0.8,1.8,1.2,2.9,1.2c1.1,0,2.1-0.4,2.9-1.2c0.6-0.6,1-1.3,1.1-2v-1.9
	c-0.1-0.7-0.5-1.3-1.1-1.9C75.3,19,74.3,18.6,73.2,18.6z"/>
<path class="st0" d="M100,30.3h-3.7v-9.9c0-1.3-0.6-1.5-1.1-1.5c-0.3,0-0.6,0.1-0.8,0.3c0,0-0.3,0.4-0.3,2.8v8.3h-3.7l0-9.9
	c0-1.3-0.6-1.5-1.1-1.5c-0.3,0-0.6,0.1-0.8,0.3c0,0-0.3,0.3-0.3,1.8v9.3h-3.7V15.9h3.7v0.1c0.6-0.6,1.5-0.9,2.5-0.9
	c1.2,0,2.1,0.5,2.6,1.4c0.6-0.8,1.6-1.4,3.4-1.4c1.5,0,3.3,0.7,3.3,3.9V30.3z"/>
<path class="st0" d="M110.7,30.7c-2.2,0-4-0.8-5.6-2.3c-1.5-1.5-2.3-3.4-2.3-5.6s0.8-4.1,2.3-5.6c1.5-1.5,3.4-2.3,5.6-2.3
	c1.9,0,3.5,0.6,4.9,1.7c0.2,0.2,0.5,0.4,0.7,0.6c0.1,0.1,0.3,0.4,0.8,0.8l0.3,0.4l-8.3,8.3c0.3,0.1,0.9,0.2,1.6,0.2
	c1.2,0,2.1-0.4,2.9-1.2c0.1-0.1,0.3-0.4,0.7-0.8l0.2-0.3l3.7,1.3l-0.4,0.5c-0.7,0.9-1.2,1.6-1.5,1.9
	C114.8,29.9,112.9,30.7,110.7,30.7z M110.7,18.6c-1.1,0-2.1,0.4-2.9,1.2s-1.2,1.8-1.2,2.9c0,0.5,0,0.9,0.1,1.1l5.2-5.2
	C111.6,18.6,111.2,18.6,110.7,18.6z"/>
<path class="st0" d="M124.3,30.3h-3.7V15.9h3.7v1c0.9-0.8,2-1.3,3.2-1.3l0.5,0v3.8l-0.5,0c-0.9,0-1.5,0.3-2,0.8
	c-0.8,0.8-1.2,1.7-1.2,2.8V30.3z"/>
<path class="st0" d="M137.9,30.7c-2.2,0-4.1-0.8-5.6-2.3c-1.5-1.5-2.3-3.4-2.3-5.6s0.8-4.1,2.3-5.6c1.5-1.5,3.4-2.3,5.6-2.3
	c1.5,0,2.8,0.5,4,1.4v-0.3h3.7v14.4h-3.7v-1.1C140.7,30.2,139.4,30.7,137.9,30.7z M137.9,18.6c-1.2,0-2.1,0.4-2.9,1.2
	c-0.8,0.8-1.2,1.8-1.2,2.9c0,1.1,0.4,2.1,1.2,2.9c0.8,0.8,1.8,1.2,2.9,1.2c1.1,0,2.1-0.4,2.9-1.2c0.6-0.6,1-1.3,1.1-2v-1.9
	c-0.1-0.7-0.5-1.3-1.1-1.9C140,19,139,18.6,137.9,18.6z"/>
<path class="st0" d="M154.6,30.3h-3.7V19.6h-2.4v-3.7h2.4v-3l3.7-2v5h2.4v3.7h-2.4V30.3z"/>
<path class="st0" d="M167.3,30.7c-2.2,0-4.1-0.8-5.6-2.3c-1.5-1.5-2.3-3.4-2.3-5.6s0.8-4.1,2.3-5.6c1.5-1.5,3.4-2.3,5.6-2.3
	c1.5,0,2.8,0.5,4,1.4v-0.3h3.7v14.4h-3.7v-1.1C170.2,30.2,168.8,30.7,167.3,30.7z M167.3,18.6c-1.2,0-2.1,0.4-2.9,1.2
	c-0.8,0.8-1.2,1.8-1.2,2.9c0,1.1,0.4,2.1,1.2,2.9s1.8,1.2,2.9,1.2c1.1,0,2.1-0.4,2.9-1.2c0.6-0.6,1-1.3,1.1-2v-1.9
	c-0.1-0.7-0.5-1.3-1.1-1.9C169.5,19,168.5,18.6,167.3,18.6z"/>
<path class="st0" d="M195.8,30.7c-2.2,0-4-0.8-5.6-2.3c-1.5-1.5-2.3-3.4-2.3-5.6c0-2.2,0.8-4.1,2.3-5.6c1.5-1.5,3.4-2.3,5.6-2.3
	c2.2,0,4.1,0.8,5.6,2.3c0.3,0.3,0.8,0.9,1.5,1.8l0.4,0.5l-3.7,1.3l-0.2-0.3c-0.3-0.4-0.6-0.7-0.7-0.8c-0.8-0.8-1.8-1.2-2.9-1.2
	c-1.1,0-2.1,0.4-2.9,1.2c-0.8,0.8-1.2,1.8-1.2,2.9c0,1.1,0.4,2.1,1.2,2.9c0.8,0.8,1.8,1.2,2.9,1.2c1.2,0,2.1-0.4,2.9-1.2
	c0.1-0.1,0.3-0.4,0.7-0.8l0.2-0.3l3.7,1.3l-0.4,0.5c-0.7,0.9-1.2,1.6-1.5,1.9C199.9,29.9,198,30.7,195.8,30.7z"/>
<path class="st0" d="M213.4,30.7c-2.2,0-4.1-0.8-5.6-2.3c-1.5-1.5-2.3-3.4-2.3-5.6s0.8-4.1,2.3-5.6c1.5-1.5,3.4-2.3,5.6-2.3
	c1.5,0,2.8,0.5,4,1.4v-0.3h3.7v14.4h-3.7v-1.1C216.2,30.2,214.9,30.7,213.4,30.7z M213.4,18.6c-1.2,0-2.1,0.4-2.9,1.2
	c-0.8,0.8-1.2,1.8-1.2,2.9c0,1.1,0.4,2.1,1.2,2.9s1.8,1.2,2.9,1.2c1.1,0,2.1-0.4,2.9-1.2c0.6-0.6,1-1.3,1.1-2v-1.9
	c-0.1-0.7-0.5-1.3-1.1-1.9C215.5,19,214.5,18.6,213.4,18.6z"/>
<path class="st0" d="M236.5,30.3h-3.7v-9.1c0-0.6-0.2-1.2-0.7-1.6c-0.5-0.5-1-0.7-1.7-0.7c-0.6,0-1.2,0.2-1.7,0.7
	c-0.3,0.3-0.4,0.5-0.5,0.6v10.2h-3.7V15.9h3.7v0.3c0.7-0.7,1.7-1.1,2.9-1.1c1.6,0,2.9,0.6,3.8,1.7c0.9,1.1,1.4,2.5,1.4,4.2V30.3z"/>
<path class="st0" d="M245.4,30.3h-3.7V19.6h-2.4v-3.7h2.4v-3l3.7-2v5h2.4v3.7h-2.4V30.3z"/>
<path class="st0" d="M257.8,30.7c-2.2,0-4-0.8-5.6-2.3c-1.5-1.5-2.3-3.4-2.3-5.6c0-2.2,0.8-4.1,2.3-5.6c1.5-1.5,3.4-2.3,5.6-2.3
	c2.2,0,4.1,0.8,5.6,2.3c1.5,1.5,2.3,3.4,2.3,5.6c0,2.2-0.8,4.1-2.3,5.6C261.8,29.9,259.9,30.7,257.8,30.7z M257.8,18.6
	c-1.2,0-2.1,0.4-2.9,1.2l0,0c-0.8,0.8-1.2,1.8-1.2,2.9c0,1.2,0.4,2.1,1.2,2.9c0.8,0.8,1.8,1.2,2.9,1.2c1.2,0,2.1-0.4,2.9-1.2
	c0.8-0.8,1.2-1.8,1.2-2.9c0-1.1-0.4-2.1-1.2-2.9C259.9,19,258.9,18.6,257.8,18.6z"/>
<path class="st0" d="M272.2,30.3h-3.7V15.9h3.7v1c0.9-0.8,2-1.3,3.2-1.3l0.5,0v3.8l-0.5,0c-0.9,0-1.5,0.3-2,0.8
	c-0.8,0.8-1.2,1.7-1.2,2.8V30.3z"/>
<path class="st0" d="M284.6,30.5c-1.8,0-3.3-0.6-4.4-1.7c-1.1-1.1-1.7-2.5-1.7-4.2v-8.7h3.7v8.5c0,0.6,0.2,1.2,0.7,1.6
	c0.5,0.5,1,0.7,1.8,0.7c0.6,0,1.2-0.2,1.7-0.7c0.5-0.5,0.7-1,0.7-1.6v-8.5h3.7v8.6c0,1.7-0.6,3.1-1.7,4.2
	C287.8,29.9,286.3,30.5,284.6,30.5z"/>
<path class="st0" d="M309.7,30.3H306v-9.9c0-1.3-0.6-1.5-1.1-1.5c-0.3,0-0.6,0.1-0.8,0.3c0,0-0.3,0.4-0.3,2.8v8.3h-3.7l0-9.9
	c0-1.3-0.5-1.5-1.1-1.5c-0.3,0-0.6,0.1-0.8,0.3c0,0-0.3,0.3-0.3,1.8v9.3h-3.7V15.9h3.7v0.1c0.6-0.6,1.5-0.9,2.5-0.9
	c1.2,0,2.1,0.5,2.6,1.4c0.6-0.8,1.6-1.4,3.4-1.4c1.5,0,3.3,0.7,3.3,3.9V30.3z"/>
<g>
	<path class="st0" d="M48.6,37.9v3.4h-0.4v-7h0.4v3l2.2-3h0.5l-2.1,2.8l2.7,4.2h-0.5L49,37.4L48.6,37.9z"/>
	<path class="st0" d="M65.9,38.6h-2.4l-1,2.7h-0.4l2.6-7.2l2.6,7.2h-0.4L65.9,38.6z M65.7,38.2l-1.1-2.9l-1.1,2.9H65.7z"/>
	<path class="st0" d="M78.1,34.3l2.6,4.6l2.6-4.6h0.5l0,0v7h-0.4V35l-2.7,4.6L78,35v6.3h-0.4v-7l0,0H78.1z"/>
	<path class="st0" d="M95,34.3l2.6,4.6l2.6-4.6h0.5l0,0v7h-0.4V35l-2.7,4.6L95,35v6.3h-0.4v-7l0,0H95z"/>
	<path class="st0" d="M115,34.3v0.4h-3.1v2.9h3.1V38h-3.1v2.9h3.1v0.4h-3.5v-7H115z"/>
	<path class="st0" d="M127.4,38.9c0,0-0.1,0-0.1,0h-1.2v2.4h-0.4v-7h1.8c0.5,0.1,1,0.3,1.4,0.7c0.4,0.4,0.7,1,0.7,1.6
		c0,0.6-0.2,1.2-0.7,1.6c-0.3,0.3-0.7,0.5-1.1,0.6l1.6,2.5h-0.5L127.4,38.9z M126.1,34.7v3.8h1.2c0.5,0,1-0.2,1.3-0.6
		c0.4-0.4,0.6-0.8,0.6-1.3s-0.2-1-0.6-1.3s-0.8-0.6-1.3-0.6H126.1z"/>
	<path class="st0" d="M145.5,40.2l0.3,0.3c-0.7,0.6-1.5,0.9-2.4,0.9c-1,0-1.8-0.4-2.5-1.1c-0.7-0.7-1.1-1.6-1.1-2.5
		c0-1,0.4-1.8,1.1-2.5s1.6-1.1,2.5-1.1c0.9,0,1.7,0.3,2.4,0.9l-0.3,0.3c-0.6-0.5-1.3-0.8-2.1-0.8c-0.9,0-1.6,0.3-2.3,0.9
		s-0.9,1.4-0.9,2.3c0,0.9,0.3,1.6,0.9,2.3c0.6,0.6,1.4,0.9,2.3,0.9C144.2,41,144.9,40.7,145.5,40.2z"/>
	<path class="st0" d="M156.8,38.2v3.2h-0.4v-7h0.4v3.5h2.9v-3.5h0.4v7h-0.4v-3.2H156.8z"/>
	<path class="st0" d="M176.9,35.2c0.7,0.7,1.1,1.6,1.1,2.6s-0.4,1.8-1.1,2.6c-0.7,0.7-1.6,1.1-2.6,1.1s-1.8-0.4-2.6-1.1
		c-0.7-0.7-1.1-1.6-1.1-2.6s0.4-1.8,1.1-2.6c0.7-0.7,1.6-1.1,2.6-1.1S176.2,34.5,176.9,35.2z M174.4,34.6c-0.9,0-1.6,0.3-2.3,0.9
		c-0.6,0.6-0.9,1.4-0.9,2.3s0.3,1.6,0.9,2.3c0.6,0.6,1.4,0.9,2.3,0.9s1.6-0.3,2.3-0.9c0.6-0.6,0.9-1.4,0.9-2.3s-0.3-1.6-0.9-2.3
		C176,34.9,175.2,34.6,174.4,34.6z"/>
	<path class="st0" d="M190.3,38.9c0,0-0.1,0-0.1,0H189v2.4h-0.4v-7h1.8c0.5,0.1,1,0.3,1.4,0.7c0.4,0.4,0.7,1,0.7,1.6
		c0,0.6-0.2,1.2-0.7,1.6c-0.3,0.3-0.7,0.5-1.1,0.6l1.6,2.5h-0.5L190.3,38.9z M189,34.7v3.8h1.2c0.5,0,1-0.2,1.3-0.6
		c0.4-0.4,0.6-0.8,0.6-1.3s-0.2-1-0.6-1.3c-0.4-0.4-0.8-0.6-1.3-0.6H189z"/>
	<path class="st0" d="M219.6,34.3L219.6,34.3c1.2,0,2.1,0.3,2.7,1c0.7,0.7,1.1,1.6,1.1,2.5c0,1-0.4,1.8-1.1,2.5
		c-0.6,0.6-1.5,1-2.7,1h0v0h-0.4v-7L219.6,34.3L219.6,34.3z M219.6,34.7v6.2h0c1,0,1.8-0.3,2.4-0.8c0.6-0.6,0.9-1.4,0.9-2.3
		c0-0.9-0.3-1.6-0.9-2.3C221.4,35,220.6,34.7,219.6,34.7L219.6,34.7z"/>
	<path class="st0" d="M235.6,38.9c0,0-0.1,0-0.1,0h-1.2v2.4h-0.4v-7h1.8c0.5,0.1,1,0.3,1.4,0.7c0.4,0.4,0.7,1,0.7,1.6
		c0,0.6-0.2,1.2-0.7,1.6c-0.3,0.3-0.7,0.5-1.1,0.6l1.6,2.5h-0.5L235.6,38.9z M234.3,34.7v3.8h1.2c0.5,0,1-0.2,1.3-0.6
		c0.4-0.4,0.6-0.8,0.6-1.3s-0.2-1-0.6-1.3c-0.4-0.4-0.8-0.6-1.3-0.6H234.3z"/>
	<path class="st0" d="M251.6,34.3v0.4h-3.1v2.9h3.1V38h-3.1v2.9h3.1v0.4h-3.5v-7H251.6z"/>
	<path class="st0" d="M264,37.4c-0.5-0.2-0.9-0.4-1.2-0.7s-0.4-0.6-0.4-1.1c0-0.4,0.1-0.8,0.4-1c0.3-0.3,0.6-0.4,1.1-0.4
		c0.4,0,0.8,0.1,1.1,0.4c0.2,0.2,0.3,0.3,0.3,0.5l-0.4,0.1c-0.1-0.1-0.1-0.3-0.3-0.4c-0.2-0.2-0.5-0.3-0.8-0.3s-0.6,0.1-0.8,0.3
		c-0.2,0.2-0.3,0.5-0.3,0.8c0,0.3,0.1,0.6,0.3,0.8c0.2,0.2,0.5,0.4,0.8,0.5c0.6,0.2,1,0.5,1.4,0.8c0.4,0.4,0.6,0.9,0.6,1.5
		c0,0.6-0.2,1.1-0.6,1.5c-0.4,0.4-0.9,0.6-1.5,0.6s-1.1-0.2-1.5-0.6c-0.3-0.3-0.5-0.7-0.6-1.1l0.4-0.1c0,0.4,0.2,0.7,0.5,1
		c0.3,0.3,0.7,0.5,1.2,0.5c0.5,0,0.9-0.2,1.2-0.5c0.3-0.3,0.5-0.7,0.5-1.2c0-0.5-0.2-0.9-0.5-1.2C264.8,37.8,264.5,37.6,264,37.4z"
		/>
	<path class="st0" d="M276.7,34.3L276.7,34.3c1.2,0,2.1,0.3,2.7,1c0.7,0.7,1.1,1.6,1.1,2.5c0,1-0.4,1.8-1.1,2.5
		c-0.6,0.6-1.5,1-2.7,1h0v0h-0.4v-7L276.7,34.3L276.7,34.3z M276.7,34.7v6.2h0c1,0,1.8-0.3,2.4-0.8c0.6-0.6,0.9-1.4,0.9-2.3
		c0-0.9-0.3-1.6-0.9-2.3C278.6,35,277.8,34.7,276.7,34.7L276.7,34.7z"/>
	<path class="st0" d="M294.6,34.3v0.4h-3.1v2.9h3.1V38h-3.1v2.9h3.1v0.4H291v-7H294.6z"/>
	<path class="st0" d="M305.2,34.3h0.4l3.6,6.3v-6.3h0.4v7h-0.4l-3.7-6.3v6.3h-0.4V34.3z"/>
</g>
<path class="st0" d="M27.8,0.9c-7.5,0-13.9,2.7-19.2,7.9S0.7,20.6,0.7,28c0,7.5,2.7,13.9,7.9,19.2c5.3,5.3,11.7,7.9,19.2,7.9
	c6.9,0,12.9-2.3,18-6.8L44,46.7c-4.6,4-10,6-16.2,6c-6.8,0-12.6-2.4-17.4-7.2C5.6,40.7,3.1,34.8,3.1,28c0-6.8,2.4-12.6,7.2-17.4
	C15.2,5.8,21,3.4,27.8,3.4c6.1,0,11.6,2,16.2,6l1.8-1.7C40.7,3.2,34.6,0.9,27.8,0.9z"/>
<path class="st1" d="M28.3,50.1c-2.8,0-5.2-1-7.2-3c-2-2-3-4.4-3-7.2c0-2.8,1-5.2,3-7.2c2-2,4.4-3,7.2-3c2.6,0,5.1,1.1,7.4,3.2
	l0.8,0.7l-3.2,2.9L32.6,36c-1.4-1.3-2.9-1.9-4.4-1.9c-1.6,0-3,0.6-4.1,1.7C23,37,22.4,38.3,22.4,40c0,1.6,0.6,3,1.7,4.1
	c1.2,1.2,2.5,1.7,4.1,1.7c1.5,0,2.9-0.6,4.4-1.9l0.7-0.6l3.2,2.9L35.7,47C33.4,49.1,30.9,50.1,28.3,50.1z"/>
</svg>
